<svg version="1.1" xmlns="http://www.w3.org/2000/svg" xmlns:xlink="http://www.w3.org/1999/xlink" width="512.000000pt" height="512.000000pt" viewBox="0,0,256,256"><g fill="#ffffff" fill-rule="nonzero" stroke="none" stroke-width="1" stroke-linecap="butt" stroke-linejoin="miter" stroke-miterlimit="10" stroke-dasharray="" stroke-dashoffset="0" font-family="none" font-weight="none" font-size="none" text-anchor="none" style="mix-blend-mode: normal"><g transform="translate(0,0.00873) scale(0.5,0.5)"><g transform="translate(0,512) scale(0.1,-0.1)"><path d="M3325,4545c-366,-99 -423,-117 -442,-140c-13,-14 -23,-36 -23,-48c0,-12 41,-173 90,-357c50,-184 90,-338 90,-341c0,-4 -24,3 -52,14l-53,22l-1311,3l-1312,2l-26,-31c-40,-47 -34,-78 34,-186c86,-137 104,-189 104,-298c0,-103 -16,-152 -85,-266l-41,-69h-115c-63,0 -123,-5 -134,-10c-22,-12 -49,-60 -49,-87c0,-10 29,-66 65,-123c85,-137 109,-213 103,-325c-6,-96 -28,-150 -113,-286c-58,-90 -62,-106 -43,-142c22,-41 38,-46 159,-47h117l47,-76c75,-120 89,-164 89,-274c-1,-111 -19,-167 -87,-270l-42,-65l-122,-5c-141,-6 -158,-14 -168,-82c-4,-24 -5,-157 -3,-295c3,-247 3,-253 26,-275l23,-23l2487,-3c1691,-2 2498,0 2523,7c23,7 40,20 47,36c8,18 12,114 12,304c0,260 -1,280 -19,302l-19,24l-294,5l-293,5l85,23c108,28 132,41 149,77c13,27 12,40 -18,150c-17,66 -65,255 -106,420c-41,165 -81,314 -89,330c-18,35 -436,1588 -436,1617c0,28 -87,358 -99,371c-5,7 -35,107 -66,222c-31,116 -60,224 -66,240c-10,32 -54,66 -86,64c-10,0 -207,-52 -438,-114zM3753,4320c20,-74 37,-143 39,-154c3,-17 -34,-29 -326,-107c-182,-49 -331,-88 -332,-86c-7,7 -84,311 -79,315c10,10 650,179 656,173c4,-3 22,-67 42,-141zM3863,3892c11,-40 17,-75 15,-78c-7,-7 -620,-174 -639,-174c-11,0 -20,21 -33,76c-10,41 -16,77 -15,79c8,7 625,174 638,172c9,-1 22,-31 34,-75zM3934,3633c19,-63 376,-1426 378,-1444c3,-21 -14,-27 -322,-109c-284,-77 -326,-85 -331,-71c-4,9 -81,300 -173,646c-92,347 -178,670 -193,718c-14,48 -23,90 -20,93c4,5 631,182 649,183c4,1 9,-7 12,-16zM2962,3497c84,-41 152,-120 178,-206c24,-81 25,-109 5,-184c-26,-100 -99,-187 -194,-231l-46,-21l-1202,-3l-1202,-2l35,75c24,49 42,108 52,170c15,88 15,102 0,190c-10,62 -28,121 -52,170l-35,75l1202,-2l1202,-3zM3359,2478c63,-233 144,-538 182,-678c37,-140 90,-339 118,-441c28,-103 51,-194 51,-203c0,-14 -27,-16 -256,-16h-256l16,22c93,130 128,262 107,403c-14,84 -65,194 -121,258c-52,59 -146,122 -215,143l-54,17l28,36c145,189 148,460 7,629c-15,16 -26,34 -26,39c0,6 19,15 43,22c65,20 148,75 203,134c27,30 51,55 54,56c3,1 57,-189 119,-421zM2645,2665c109,-28 195,-106 236,-213c28,-76 23,-186 -11,-258c-31,-63 -101,-133 -165,-164l-50,-25l-1202,-3c-662,-1 -1203,0 -1203,2c0,2 13,32 30,67c81,174 81,369 0,529c-16,33 -30,64 -30,70c0,7 374,10 1168,10c1015,0 1176,-2 1227,-15zM4389,1913c11,-42 20,-78 18,-79c-4,-3 -635,-174 -644,-174c-10,0 -50,157 -42,164c6,7 610,165 630,165c12,1 22,-19 38,-76zM2864,1820c119,-19 215,-92 264,-198c37,-81 37,-193 0,-274c-49,-106 -145,-179 -264,-198c-56,-9 -2364,-15 -2364,-6c0,2 16,37 35,78c84,176 84,350 0,526c-19,41 -35,76 -35,78c0,9 2308,3 2364,-6zM4497,1505c23,-88 40,-161 38,-163c-3,-3 -631,-179 -651,-182c-4,-1 -86,331 -83,335c8,7 633,174 644,171c5,-1 28,-74 52,-161zM4950,800v-170l-2387,2l-2388,3l-3,168l-2,167h2390h2390z"></path><path d="M3616,3367c-19,-19 -26,-37 -26,-63c0,-34 236,-943 262,-1007c16,-41 51,-61 93,-53c40,8 65,38 65,81c-1,56 -265,1015 -286,1035c-10,11 -33,22 -51,26c-26,5 -37,1 -57,-19z"></path><path d="M925,3273c-65,-16 -88,-98 -39,-144l26,-24h968h968l26,24c36,34 36,88 0,122l-26,24l-951,1c-524,1 -961,0 -972,-3z"></path><path d="M630,2400c-42,-42 -32,-111 20,-137c37,-19 1913,-19 1950,0c38,19 54,60 40,102c-6,19 -20,40 -30,45c-12,6 -366,10 -989,10c-953,0 -971,0 -991,-20z"></path><path d="M885,1545c-34,-33 -34,-87 0,-120l24,-25h971h971l24,25c17,16 25,35 25,60c0,25 -8,44 -25,60l-24,25h-971h-971z"></path></g></g></g></svg>